<mxfile host="app.diagrams.net" modified="2024-01-14T12:34:20.031Z" agent="Mozilla/5.0 (Windows NT 10.0; Win64; x64) AppleWebKit/537.36 (KHTML, like Gecko) Chrome/120.0.0.0 Safari/537.36" etag="Zj0m4_pJ2gDaHmeziZ07" version="22.1.18" type="device">
  <diagram name="ページ1" id="mnPL-wJ1XfXDH14uQYT9">
    <mxGraphModel dx="2307" dy="1107" grid="1" gridSize="10" guides="1" tooltips="1" connect="1" arrows="1" fold="1" page="1" pageScale="1" pageWidth="827" pageHeight="1169" math="0" shadow="0">
      <root>
        <mxCell id="0" />
        <mxCell id="1" parent="0" />
        <mxCell id="9SZ4IUXA4r9wMpmDnjR2-3" value="Public subnet" style="points=[[0,0],[0.25,0],[0.5,0],[0.75,0],[1,0],[1,0.25],[1,0.5],[1,0.75],[1,1],[0.75,1],[0.5,1],[0.25,1],[0,1],[0,0.75],[0,0.5],[0,0.25]];outlineConnect=0;gradientColor=none;html=1;whiteSpace=wrap;fontSize=12;fontStyle=0;container=1;pointerEvents=0;collapsible=0;recursiveResize=0;shape=mxgraph.aws4.group;grIcon=mxgraph.aws4.group_security_group;grStroke=0;strokeColor=#7AA116;fillColor=#F2F6E8;verticalAlign=top;align=left;spacingLeft=30;fontColor=#248814;dashed=0;" parent="1" vertex="1">
          <mxGeometry x="120" y="120" width="600" height="210" as="geometry" />
        </mxCell>
        <mxCell id="9SZ4IUXA4r9wMpmDnjR2-1" value="AWS Cloud" style="points=[[0,0],[0.25,0],[0.5,0],[0.75,0],[1,0],[1,0.25],[1,0.5],[1,0.75],[1,1],[0.75,1],[0.5,1],[0.25,1],[0,1],[0,0.75],[0,0.5],[0,0.25]];outlineConnect=0;gradientColor=none;html=1;whiteSpace=wrap;fontSize=12;fontStyle=0;container=1;pointerEvents=0;collapsible=0;recursiveResize=0;shape=mxgraph.aws4.group;grIcon=mxgraph.aws4.group_aws_cloud_alt;strokeColor=#232F3E;fillColor=none;verticalAlign=top;align=left;spacingLeft=30;fontColor=#232F3E;dashed=0;" parent="1" vertex="1">
          <mxGeometry x="40" y="40" width="760" height="640" as="geometry" />
        </mxCell>
        <mxCell id="9SZ4IUXA4r9wMpmDnjR2-2" value="VPC" style="points=[[0,0],[0.25,0],[0.5,0],[0.75,0],[1,0],[1,0.25],[1,0.5],[1,0.75],[1,1],[0.75,1],[0.5,1],[0.25,1],[0,1],[0,0.75],[0,0.5],[0,0.25]];outlineConnect=0;gradientColor=none;html=1;whiteSpace=wrap;fontSize=12;fontStyle=0;container=1;pointerEvents=0;collapsible=0;recursiveResize=0;shape=mxgraph.aws4.group;grIcon=mxgraph.aws4.group_vpc2;strokeColor=#8C4FFF;fillColor=none;verticalAlign=top;align=left;spacingLeft=30;fontColor=#AAB7B8;dashed=0;" parent="9SZ4IUXA4r9wMpmDnjR2-1" vertex="1">
          <mxGeometry x="40" y="40" width="680" height="584.89" as="geometry" />
        </mxCell>
        <mxCell id="1S5SFtDm_Tq1YHQfRTVd-1" value="Public subnet" style="points=[[0,0],[0.25,0],[0.5,0],[0.75,0],[1,0],[1,0.25],[1,0.5],[1,0.75],[1,1],[0.75,1],[0.5,1],[0.25,1],[0,1],[0,0.75],[0,0.5],[0,0.25]];outlineConnect=0;gradientColor=none;html=1;whiteSpace=wrap;fontSize=12;fontStyle=0;container=1;pointerEvents=0;collapsible=0;recursiveResize=0;shape=mxgraph.aws4.group;grIcon=mxgraph.aws4.group_security_group;grStroke=0;strokeColor=#7AA116;fillColor=#F2F6E8;verticalAlign=top;align=left;spacingLeft=30;fontColor=#248814;dashed=0;" parent="9SZ4IUXA4r9wMpmDnjR2-2" vertex="1">
          <mxGeometry x="40" y="280" width="600" height="220" as="geometry" />
        </mxCell>
        <mxCell id="9SZ4IUXA4r9wMpmDnjR2-6" value="Security group" style="fillColor=none;strokeColor=#DD3522;verticalAlign=top;fontStyle=0;fontColor=#DD3522;whiteSpace=wrap;html=1;" parent="1S5SFtDm_Tq1YHQfRTVd-1" vertex="1">
          <mxGeometry x="340" y="-260" width="190" height="480" as="geometry" />
        </mxCell>
        <mxCell id="9SZ4IUXA4r9wMpmDnjR2-7" value="" style="sketch=0;points=[[0,0,0],[0.25,0,0],[0.5,0,0],[0.75,0,0],[1,0,0],[0,1,0],[0.25,1,0],[0.5,1,0],[0.75,1,0],[1,1,0],[0,0.25,0],[0,0.5,0],[0,0.75,0],[1,0.25,0],[1,0.5,0],[1,0.75,0]];outlineConnect=0;fontColor=#232F3E;fillColor=#ED7100;strokeColor=#ffffff;dashed=0;verticalLabelPosition=bottom;verticalAlign=top;align=center;html=1;fontSize=12;fontStyle=0;aspect=fixed;shape=mxgraph.aws4.resourceIcon;resIcon=mxgraph.aws4.ec2;" parent="1S5SFtDm_Tq1YHQfRTVd-1" vertex="1">
          <mxGeometry x="396" y="-170" width="78" height="78" as="geometry" />
        </mxCell>
        <mxCell id="9SZ4IUXA4r9wMpmDnjR2-15" value="" style="sketch=0;outlineConnect=0;fontColor=#232F3E;gradientColor=none;fillColor=#DD344C;strokeColor=none;dashed=0;verticalLabelPosition=bottom;verticalAlign=top;align=center;html=1;fontSize=12;fontStyle=0;aspect=fixed;pointerEvents=1;shape=mxgraph.aws4.role;" parent="9SZ4IUXA4r9wMpmDnjR2-2" vertex="1">
          <mxGeometry x="100" y="531.79" width="50" height="28.21" as="geometry" />
        </mxCell>
        <mxCell id="1S5SFtDm_Tq1YHQfRTVd-2" value="" style="sketch=0;outlineConnect=0;fontColor=#232F3E;gradientColor=none;fillColor=#8C4FFF;strokeColor=none;dashed=0;verticalLabelPosition=bottom;verticalAlign=top;align=center;html=1;fontSize=12;fontStyle=0;aspect=fixed;pointerEvents=1;shape=mxgraph.aws4.route_table;" parent="9SZ4IUXA4r9wMpmDnjR2-2" vertex="1">
          <mxGeometry x="160" y="505" width="56.45" height="55" as="geometry" />
        </mxCell>
        <mxCell id="1S5SFtDm_Tq1YHQfRTVd-5" value="Security group" style="fillColor=none;strokeColor=#DD3522;verticalAlign=top;fontStyle=0;fontColor=#DD3522;whiteSpace=wrap;html=1;" parent="9SZ4IUXA4r9wMpmDnjR2-2" vertex="1">
          <mxGeometry x="170" y="20" width="190" height="480" as="geometry" />
        </mxCell>
        <mxCell id="9SZ4IUXA4r9wMpmDnjR2-8" value="" style="edgeStyle=orthogonalEdgeStyle;html=1;endArrow=block;elbow=vertical;startArrow=none;endFill=1;strokeColor=#545B64;rounded=0;entryX=0;entryY=0.5;entryDx=0;entryDy=0;entryPerimeter=0;" parent="9SZ4IUXA4r9wMpmDnjR2-2" edge="1">
          <mxGeometry width="100" relative="1" as="geometry">
            <mxPoint x="30" y="270.0344827586207" as="sourcePoint" />
            <mxPoint x="220" y="270" as="targetPoint" />
            <Array as="points">
              <mxPoint x="80" y="270" />
              <mxPoint x="80" y="270" />
            </Array>
          </mxGeometry>
        </mxCell>
        <mxCell id="1S5SFtDm_Tq1YHQfRTVd-6" value="" style="sketch=0;points=[[0,0,0],[0.25,0,0],[0.5,0,0],[0.75,0,0],[1,0,0],[0,1,0],[0.25,1,0],[0.5,1,0],[0.75,1,0],[1,1,0],[0,0.25,0],[0,0.5,0],[0,0.75,0],[1,0.25,0],[1,0.5,0],[1,0.75,0]];outlineConnect=0;fontColor=#232F3E;fillColor=#8C4FFF;strokeColor=#ffffff;dashed=0;verticalLabelPosition=bottom;verticalAlign=top;align=center;html=1;fontSize=12;fontStyle=0;aspect=fixed;shape=mxgraph.aws4.resourceIcon;resIcon=mxgraph.aws4.elastic_load_balancing;" parent="9SZ4IUXA4r9wMpmDnjR2-2" vertex="1">
          <mxGeometry x="220" y="230" width="78" height="78" as="geometry" />
        </mxCell>
        <mxCell id="9SZ4IUXA4r9wMpmDnjR2-10" value="" style="edgeStyle=orthogonalEdgeStyle;html=1;endArrow=block;elbow=vertical;startArrow=none;endFill=1;strokeColor=#545B64;rounded=0;entryX=0;entryY=0.5;entryDx=0;entryDy=0;entryPerimeter=0;exitX=0;exitY=0.5;exitDx=0;exitDy=0;" parent="9SZ4IUXA4r9wMpmDnjR2-2" source="1S5SFtDm_Tq1YHQfRTVd-6" target="9SZ4IUXA4r9wMpmDnjR2-7" edge="1">
          <mxGeometry width="100" relative="1" as="geometry">
            <mxPoint x="240" y="530" as="sourcePoint" />
            <mxPoint x="239.38" y="240" as="targetPoint" />
            <Array as="points">
              <mxPoint x="330" y="269" />
              <mxPoint x="330" y="149" />
            </Array>
          </mxGeometry>
        </mxCell>
        <mxCell id="5M9jew5R1INHpogPun9Z-1" value="" style="sketch=0;points=[[0,0,0],[0.25,0,0],[0.5,0,0],[0.75,0,0],[1,0,0],[0,1,0],[0.25,1,0],[0.5,1,0],[0.75,1,0],[1,1,0],[0,0.25,0],[0,0.5,0],[0,0.75,0],[1,0.25,0],[1,0.5,0],[1,0.75,0]];outlineConnect=0;fontColor=#232F3E;fillColor=#8C4FFF;strokeColor=#ffffff;dashed=0;verticalLabelPosition=bottom;verticalAlign=top;align=center;html=1;fontSize=12;fontStyle=0;aspect=fixed;shape=mxgraph.aws4.resourceIcon;resIcon=mxgraph.aws4.route_53;" vertex="1" parent="9SZ4IUXA4r9wMpmDnjR2-2">
          <mxGeometry x="40" y="506.89" width="53.11" height="53.11" as="geometry" />
        </mxCell>
        <mxCell id="9SZ4IUXA4r9wMpmDnjR2-4" value="" style="sketch=0;outlineConnect=0;fontColor=#232F3E;gradientColor=none;fillColor=#8C4FFF;strokeColor=none;dashed=0;verticalLabelPosition=bottom;verticalAlign=top;align=center;html=1;fontSize=12;fontStyle=0;aspect=fixed;pointerEvents=1;shape=mxgraph.aws4.internet_gateway;" parent="9SZ4IUXA4r9wMpmDnjR2-1" vertex="1">
          <mxGeometry x="10" y="280" width="60" height="60" as="geometry" />
        </mxCell>
        <mxCell id="9SZ4IUXA4r9wMpmDnjR2-9" value="Corporate data center" style="points=[[0,0],[0.25,0],[0.5,0],[0.75,0],[1,0],[1,0.25],[1,0.5],[1,0.75],[1,1],[0.75,1],[0.5,1],[0.25,1],[0,1],[0,0.75],[0,0.5],[0,0.25]];outlineConnect=0;gradientColor=none;html=1;whiteSpace=wrap;fontSize=12;fontStyle=0;container=1;pointerEvents=0;collapsible=0;recursiveResize=0;shape=mxgraph.aws4.group;grIcon=mxgraph.aws4.group_corporate_data_center;strokeColor=#7D8998;fillColor=none;verticalAlign=top;align=left;spacingLeft=30;fontColor=#5A6C86;dashed=0;" parent="1" vertex="1">
          <mxGeometry x="660" y="720" width="130" height="130" as="geometry" />
        </mxCell>
        <mxCell id="9SZ4IUXA4r9wMpmDnjR2-16" value="Developers" style="sketch=0;outlineConnect=0;gradientColor=none;fontColor=#545B64;strokeColor=none;fillColor=#879196;dashed=0;verticalLabelPosition=bottom;verticalAlign=top;align=center;html=1;fontSize=12;fontStyle=0;aspect=fixed;shape=mxgraph.aws4.illustration_users;pointerEvents=1" parent="9SZ4IUXA4r9wMpmDnjR2-9" vertex="1">
          <mxGeometry x="40" y="50" width="50" height="50" as="geometry" />
        </mxCell>
        <mxCell id="9SZ4IUXA4r9wMpmDnjR2-11" value="users" style="sketch=0;outlineConnect=0;gradientColor=none;fontColor=#545B64;strokeColor=none;fillColor=#879196;dashed=0;verticalLabelPosition=bottom;verticalAlign=top;align=center;html=1;fontSize=12;fontStyle=0;aspect=fixed;shape=mxgraph.aws4.illustration_users;pointerEvents=1" parent="1" vertex="1">
          <mxGeometry x="-130" y="320" width="71" height="71" as="geometry" />
        </mxCell>
        <mxCell id="9SZ4IUXA4r9wMpmDnjR2-13" value="" style="edgeStyle=orthogonalEdgeStyle;html=1;endArrow=block;elbow=vertical;startArrow=none;endFill=1;strokeColor=#545B64;rounded=0;" parent="1" edge="1">
          <mxGeometry width="100" relative="1" as="geometry">
            <mxPoint x="-49" y="355.14" as="sourcePoint" />
            <mxPoint x="51" y="355.14" as="targetPoint" />
          </mxGeometry>
        </mxCell>
        <mxCell id="1S5SFtDm_Tq1YHQfRTVd-7" value="" style="edgeStyle=orthogonalEdgeStyle;html=1;endArrow=block;elbow=vertical;startArrow=none;endFill=1;strokeColor=#545B64;rounded=0;entryX=0.5;entryY=1;entryDx=0;entryDy=0;entryPerimeter=0;exitX=0;exitY=0.5;exitDx=0;exitDy=0;" parent="1" source="9SZ4IUXA4r9wMpmDnjR2-9" target="9SZ4IUXA4r9wMpmDnjR2-7" edge="1">
          <mxGeometry width="100" relative="1" as="geometry">
            <mxPoint x="500" y="785" as="sourcePoint" />
            <mxPoint x="555" y="268" as="targetPoint" />
            <Array as="points">
              <mxPoint x="555" y="785" />
            </Array>
          </mxGeometry>
        </mxCell>
        <mxCell id="1S5SFtDm_Tq1YHQfRTVd-8" value="Target group" style="fillColor=none;strokeColor=#5A6C86;dashed=1;verticalAlign=top;fontStyle=0;fontColor=#5A6C86;whiteSpace=wrap;html=1;" parent="1" vertex="1">
          <mxGeometry x="270" y="270" width="130" height="140" as="geometry" />
        </mxCell>
      </root>
    </mxGraphModel>
  </diagram>
</mxfile>
